<svg width="24" height="22" viewBox="0 0 24 22" fill="none" xmlns="http://www.w3.org/2000/svg">
<path d="M11.074 1.633C11.394 0.789 12.605 0.789 12.926 1.633L14.996 7.367C15.141 7.747 15.51 8 15.922 8H21.009C21.949 8 22.359 9.17 21.62 9.743L18 13C17.8379 13.1247 17.7194 13.2975 17.6615 13.4937C17.6037 13.6898 17.6094 13.8993 17.678 14.092L19 19.695C19.322 20.595 18.28 21.368 17.492 20.814L12.575 17.694C12.4066 17.5757 12.2058 17.5122 12 17.5122C11.7942 17.5122 11.5934 17.5757 11.425 17.694L6.50802 20.814C5.72102 21.368 4.67802 20.594 5.00002 19.695L6.32202 14.092C6.39059 13.8993 6.39637 13.6898 6.33852 13.4937C6.28068 13.2975 6.16217 13.1247 6.00002 13L2.38002 9.743C1.64002 9.17 2.05202 8 2.99002 8H8.07702C8.27731 8.00067 8.47308 7.9405 8.63843 7.82747C8.80378 7.71444 8.93092 7.55387 9.00302 7.367L11.073 1.633H11.074Z" stroke="black" stroke-width="2" stroke-linecap="round" stroke-linejoin="round"/>
</svg>
